#!OML:ASF I:\Actors\actors\Patient Classification 2\Patient 1\Session 1\actor1.ASF
:FULLY-SPECIFIED
:DEGREES
403
root -0.835991 18.2755 4.56077 14.6324 2.99921 -0.857502
lowerback 26.6477 2.3015 -4.08803
upperback 5.69142 1.6984 -1.52126
thorax -8.48671 0.878029 0.0974445
lowerneck -24.8879 -5.20782 -3.39118
upperneck 12.9589 -7.156 6.48921
head 8.43525 -2.85285 1.72874
rclavicle 1.63003e-014 -3.45885e-014
rhumerus 11.3956 18.8653 -87.5895
rradius 58.0377
rwrist -34.8381
rhand -9.90713 -62.8641
rfingers 7.12502
rthumb 16.0731 452.217
lclavicle 1.63003e-014 -3.45885e-014
lhumerus 6.6792 -28.0959 96.6569
lradius 67.9558
lwrist 65.196
lhand -28.8883 -5.35512
lfingers 7.12502
lthumb -2.24384 24.6128
rfemur -0.351023 -2.39375 15.8686
rtibia -21.9787
rfoot -2.06819 -20.9438
rtoes 2.69557
lfemur -2.77817 -1.47681 -11.6027
ltibia -19.8452
lfoot 7.16929 13.8463
ltoes -18.2055
404
root -0.840007 18.2755 4.5569 14.6101 3.00141 -0.796032
lowerback 26.6616 2.31231 -4.12896
upperback 5.6391 1.69365 -1.57078
thorax -8.55186 0.877413 0.0656613
lowerneck -24.8203 -5.24206 -3.40605
upperneck 12.8324 -7.21977 6.6349
head 8.39186 -2.87212 1.77243
rclavicle -7.95139e-016 -1.31198e-014
rhumerus 11.5385 18.9964 -87.4306
rradius 57.7293
rwrist -35.1048
rhand -9.81517 -63.0902
rfingers 7.12502
rthumb 16.1616 452.436
lclavicle -7.95139e-016 -1.31198e-014
lhumerus 6.66272 -28.1272 96.6709
lradius 67.838
lwrist 65.3515
lhand -28.9582 -5.39854
lfingers 7.12502
lthumb -2.31134 24.5687
rfemur -0.31887 -2.42455 15.8181
rtibia -22.0182
rfoot -2.04879 -20.9568
rtoes 2.76739
lfemur -2.80439 -1.52729 -11.654
ltibia -19.7661
lfoot 7.13724 13.8843
ltoes -18.4134
405
root -0.843741 18.2758 4.55345 14.6109 3.00631 -0.728684
lowerback 26.6893 2.32313 -4.1464
upperback 5.59946 1.69562 -1.61195
thorax -8.60961 0.879319 0.0273385
lowerneck -24.8402 -5.33013 -3.52752
upperneck 12.6738 -7.33958 6.90044
head 8.36452 -2.90921 1.86404
rclavicle 2.38542e-014 -5.96354e-015
rhumerus 11.7628 19.0611 -87.242
rradius 57.3567
rwrist -35.2717
rhand -9.78984 -63.1838
rfingers 7.12502
rthumb 16.186 452.528
lclavicle 2.38542e-014 -5.96354e-015
lhumerus 6.69602 -28.1618 96.7032
lradius 67.7184
lwrist 65.5417
lhand -29.1002 -5.46548
lfingers 7.12502
lthumb -2.44848 24.5002
rfemur -0.305054 -2.46495 15.7609
rtibia -22.0588
rfoot -2.01179 -20.9755
rtoes 2.8157
lfemur -2.86829 -1.57758 -11.7124
ltibia -19.6686
lfoot 7.08324 13.9513
ltoes -18.4235
406
root -0.847511 18.277 4.55122 14.6219 3.025 -0.67833
lowerback 26.6758 2.30755 -4.16526
upperback 5.60851 1.66836 -1.64754
thorax -8.59107 0.866496 0.00830775
lowerneck -25.0202 -5.3827 -3.48364
upperneck 12.462 -7.42834 7.01077
head 8.33007 -2.9378 1.87939
rclavicle 3.57812e-015 1.98785e-015
rhumerus 12.0743 19.1538 -87.1188
rradius 56.9597
rwrist -35.3048
rhand -9.83232 -63.3282
rfingers 7.12502
rthumb 16.1451 452.676
lclavicle 3.57812e-015 1.98785e-015
lhumerus 6.79207 -28.107 96.6909
lradius 67.6035
lwrist 65.6394
lhand -29.2936 -5.4422
lfingers 7.12502
lthumb -2.63529 24.5213
rfemur -0.29078 -2.50204 15.7225
rtibia -22.1058
rfoot -1.94603 -20.9784
rtoes 2.52024
lfemur -2.94434 -1.65673 -11.7407
ltibia -19.5682
lfoot 7.01829 13.9808
ltoes -18.1127
407
root -0.852574 18.2785 4.55032 14.6172 3.05705 -0.644224
lowerback 26.5714 2.28772 -4.23163
upperback 5.63031 1.6321 -1.6528
thorax -8.51413 0.850162 0.056186
lowerneck -25.0799 -5.38201 -3.39295
upperneck 12.1642 -7.44716 7.06928
head 8.23888 -2.94178 1.88234
rclavicle -1.82882e-014 3.18055e-015
rhumerus 12.3046 19.3075 -87.0407
rradius 56.6102
rwrist -35.241
rhand -9.90338 -63.5647
rfingers 7.12502
rthumb 16.0767 452.918
lclavicle -1.82882e-014 3.18055e-015
lhumerus 6.85433 -27.9578 96.7428
lradius 67.4555
lwrist 65.6681
lhand -29.413 -5.37481
lfingers 7.12502
lthumb -2.75055 24.5872
rfemur -0.257323 -2.50686 15.7046
rtibia -22.1479
rfoot -1.87989 -20.9885
rtoes 1.99212
lfemur -2.99737 -1.73278 -11.7446
ltibia -19.472
lfoot 6.94892 13.9693
ltoes -17.959
408
root -0.85803 18.2791 4.55104 14.5916 3.08091 -0.638572
lowerback 26.4595 2.28362 -4.25342
upperback 5.61865 1.62788 -1.65064
thorax -8.47125 0.848555 0.0754429
lowerneck -25.0544 -5.41525 -3.45454
upperneck 11.9293 -7.49636 7.28309
head 8.1706 -2.95156 1.9582
rclavicle 6.75868e-015 2.50469e-014
rhumerus 12.3909 19.3911 -86.9917
rradius 56.3041
rwrist -35.1807
rhand -9.95558 -63.646
rfingers 7.12502
rthumb 16.0264 453.003
lclavicle 6.75868e-015 2.50469e-014
lhumerus 6.83682 -27.867 96.858
lradius 67.2939
lwrist 65.6519
lhand -29.4258 -5.31089
lfingers 7.12502
lthumb -2.76289 24.651
rfemur -0.211915 -2.47629 15.7178
rtibia -22.1765
rfoot -1.89468 -21.0336
rtoes 1.85438
lfemur -3.01436 -1.77288 -11.7204
ltibia -19.385
lfoot 6.8547 14.026
ltoes -18.2259
